<?xml version="1.0" encoding="utf-8"?><!-- Uploaded to: SVG Repo, www.svgrepo.com, Generator: SVG Repo Mixer Tools -->
<svg fill="#000000" width="800px" height="800px" viewBox="0 0 24 24" id="open-envelop" data-name="Flat Line" xmlns="http://www.w3.org/2000/svg" class="icon flat-line"><path id="secondary" d="M16,3H8A1,1,0,0,0,7,4v8.67L12,16l5-3.33V4A1,1,0,0,0,16,3Z" style="fill: rgb(44, 169, 188); stroke-width: 2;"></path><line id="primary" x1="3" y1="10" x2="7" y2="7" style="fill: none; stroke: rgb(0, 0, 0); stroke-linecap: round; stroke-linejoin: round; stroke-width: 2;"></line><line id="primary-2" data-name="primary" x1="21" y1="10" x2="17" y2="7" style="fill: none; stroke: rgb(0, 0, 0); stroke-linecap: round; stroke-linejoin: round; stroke-width: 2;"></line><path id="primary-3" data-name="primary" d="M17,4v8.67L12,16,7,12.67V4A1,1,0,0,1,8,3h8A1,1,0,0,1,17,4Zm0,8.67L12,16,7,12.67,3,10V20.08A1,1,0,0,0,4,21H20a1,1,0,0,0,1-.92V10Z" style="fill: none; stroke: rgb(0, 0, 0); stroke-linecap: round; stroke-linejoin: round; stroke-width: 2;"></path></svg>